<mxfile host="app.diagrams.net" modified="2023-09-21T02:21:30.123Z" agent="Mozilla/5.0 (Macintosh; Intel Mac OS X 10_15_7) AppleWebKit/537.36 (KHTML, like Gecko) Chrome/116.0.0.0 Safari/537.36" version="21.7.5" etag="5xY4m54Jo5rydQeY_WSs" type="github">
  <diagram name="第 1 页" id="8QdYS2JBNf0cCBbtKJMy">
    <mxGraphModel>
      <root>
        <mxCell id="0" />
        <mxCell id="1" parent="0" />
      </root>
    </mxGraphModel>
  </diagram>
</mxfile>
